<?xml version="1.0" encoding="utf-8" standalone="no"?>
<!DOCTYPE svg PUBLIC "-//W3C//DTD SVG 1.1//EN"
  "http://www.w3.org/Graphics/SVG/1.1/DTD/svg11.dtd">
<!-- Created with matplotlib (https://matplotlib.org/) -->
<svg height="345.6pt" version="1.1" viewBox="0 0 460.8 345.6" width="460.8pt" xmlns="http://www.w3.org/2000/svg" xmlns:xlink="http://www.w3.org/1999/xlink">
 <metadata>
  <rdf:RDF xmlns:cc="http://creativecommons.org/ns#" xmlns:dc="http://purl.org/dc/elements/1.1/" xmlns:rdf="http://www.w3.org/1999/02/22-rdf-syntax-ns#">
   <cc:Work>
    <dc:type rdf:resource="http://purl.org/dc/dcmitype/StillImage"/>
    <dc:date>2022-08-26T14:50:17.139612</dc:date>
    <dc:format>image/svg+xml</dc:format>
    <dc:creator>
     <cc:Agent>
      <dc:title>Matplotlib v3.3.2, https://matplotlib.org/</dc:title>
     </cc:Agent>
    </dc:creator>
   </cc:Work>
  </rdf:RDF>
 </metadata>
 <defs>
  <style type="text/css">*{stroke-linecap:butt;stroke-linejoin:round;}</style>
 </defs>
 <g id="figure_1">
  <g id="patch_1">
   <path d="M 0 345.6 
L 460.8 345.6 
L 460.8 0 
L 0 0 
z
" style="fill:#ffffff;"/>
  </g>
  <g id="axes_1">
   <g id="patch_2">
    <path d="M 72.643527 293.56 
L 443.34 293.56 
L 443.34 17.244 
L 72.643527 17.244 
z
" style="fill:#ffffff;"/>
   </g>
   <g id="matplotlib.axis_1">
    <g id="xtick_1">
     <g id="line2d_1">
      <defs>
       <path d="M 0 0 
L 0 3.5 
" id="mb9863ef1b9" style="stroke:#000000;stroke-width:0.8;"/>
      </defs>
      <g>
       <use style="stroke:#000000;stroke-width:0.8;" x="84.227791" xlink:href="#mb9863ef1b9" y="293.56"/>
      </g>
     </g>
     <g id="text_1">
      <!-- 0 -->
      <g transform="translate(79.774041 311.197812)scale(0.14 -0.14)">
       <defs>
        <path d="M 31.78125 66.40625 
Q 24.171875 66.40625 20.328125 58.90625 
Q 16.5 51.421875 16.5 36.375 
Q 16.5 21.390625 20.328125 13.890625 
Q 24.171875 6.390625 31.78125 6.390625 
Q 39.453125 6.390625 43.28125 13.890625 
Q 47.125 21.390625 47.125 36.375 
Q 47.125 51.421875 43.28125 58.90625 
Q 39.453125 66.40625 31.78125 66.40625 
z
M 31.78125 74.21875 
Q 44.046875 74.21875 50.515625 64.515625 
Q 56.984375 54.828125 56.984375 36.375 
Q 56.984375 17.96875 50.515625 8.265625 
Q 44.046875 -1.421875 31.78125 -1.421875 
Q 19.53125 -1.421875 13.0625 8.265625 
Q 6.59375 17.96875 6.59375 36.375 
Q 6.59375 54.828125 13.0625 64.515625 
Q 19.53125 74.21875 31.78125 74.21875 
z
" id="DejaVuSans-48"/>
       </defs>
       <use xlink:href="#DejaVuSans-48"/>
      </g>
     </g>
    </g>
    <g id="xtick_2">
     <g id="line2d_2">
      <g>
       <use style="stroke:#000000;stroke-width:0.8;" x="200.070439" xlink:href="#mb9863ef1b9" y="293.56"/>
      </g>
     </g>
     <g id="text_2">
      <!-- 500 -->
      <g transform="translate(186.709189 311.197812)scale(0.14 -0.14)">
       <defs>
        <path d="M 10.796875 72.90625 
L 49.515625 72.90625 
L 49.515625 64.59375 
L 19.828125 64.59375 
L 19.828125 46.734375 
Q 21.96875 47.46875 24.109375 47.828125 
Q 26.265625 48.1875 28.421875 48.1875 
Q 40.625 48.1875 47.75 41.5 
Q 54.890625 34.8125 54.890625 23.390625 
Q 54.890625 11.625 47.5625 5.09375 
Q 40.234375 -1.421875 26.90625 -1.421875 
Q 22.3125 -1.421875 17.546875 -0.640625 
Q 12.796875 0.140625 7.71875 1.703125 
L 7.71875 11.625 
Q 12.109375 9.234375 16.796875 8.0625 
Q 21.484375 6.890625 26.703125 6.890625 
Q 35.15625 6.890625 40.078125 11.328125 
Q 45.015625 15.765625 45.015625 23.390625 
Q 45.015625 31 40.078125 35.4375 
Q 35.15625 39.890625 26.703125 39.890625 
Q 22.75 39.890625 18.8125 39.015625 
Q 14.890625 38.140625 10.796875 36.28125 
z
" id="DejaVuSans-53"/>
       </defs>
       <use xlink:href="#DejaVuSans-53"/>
       <use x="63.623047" xlink:href="#DejaVuSans-48"/>
       <use x="127.246094" xlink:href="#DejaVuSans-48"/>
      </g>
     </g>
    </g>
    <g id="xtick_3">
     <g id="line2d_3">
      <g>
       <use style="stroke:#000000;stroke-width:0.8;" x="315.913087" xlink:href="#mb9863ef1b9" y="293.56"/>
      </g>
     </g>
     <g id="text_3">
      <!-- 1000 -->
      <g transform="translate(298.098087 311.197812)scale(0.14 -0.14)">
       <defs>
        <path d="M 12.40625 8.296875 
L 28.515625 8.296875 
L 28.515625 63.921875 
L 10.984375 60.40625 
L 10.984375 69.390625 
L 28.421875 72.90625 
L 38.28125 72.90625 
L 38.28125 8.296875 
L 54.390625 8.296875 
L 54.390625 0 
L 12.40625 0 
z
" id="DejaVuSans-49"/>
       </defs>
       <use xlink:href="#DejaVuSans-49"/>
       <use x="63.623047" xlink:href="#DejaVuSans-48"/>
       <use x="127.246094" xlink:href="#DejaVuSans-48"/>
       <use x="190.869141" xlink:href="#DejaVuSans-48"/>
      </g>
     </g>
    </g>
    <g id="xtick_4">
     <g id="line2d_4">
      <g>
       <use style="stroke:#000000;stroke-width:0.8;" x="431.755735" xlink:href="#mb9863ef1b9" y="293.56"/>
      </g>
     </g>
     <g id="text_4">
      <!-- 1500 -->
      <g transform="translate(413.940735 311.197812)scale(0.14 -0.14)">
       <use xlink:href="#DejaVuSans-49"/>
       <use x="63.623047" xlink:href="#DejaVuSans-53"/>
       <use x="127.246094" xlink:href="#DejaVuSans-48"/>
       <use x="190.869141" xlink:href="#DejaVuSans-48"/>
      </g>
     </g>
    </g>
    <g id="text_5">
     <!-- time (ns) -->
     <g transform="translate(221.895513 330.266875)scale(0.16 -0.16)">
      <defs>
       <path d="M 18.3125 70.21875 
L 18.3125 54.6875 
L 36.8125 54.6875 
L 36.8125 47.703125 
L 18.3125 47.703125 
L 18.3125 18.015625 
Q 18.3125 11.328125 20.140625 9.421875 
Q 21.96875 7.515625 27.59375 7.515625 
L 36.8125 7.515625 
L 36.8125 0 
L 27.59375 0 
Q 17.1875 0 13.234375 3.875 
Q 9.28125 7.765625 9.28125 18.015625 
L 9.28125 47.703125 
L 2.6875 47.703125 
L 2.6875 54.6875 
L 9.28125 54.6875 
L 9.28125 70.21875 
z
" id="DejaVuSans-116"/>
       <path d="M 9.421875 54.6875 
L 18.40625 54.6875 
L 18.40625 0 
L 9.421875 0 
z
M 9.421875 75.984375 
L 18.40625 75.984375 
L 18.40625 64.59375 
L 9.421875 64.59375 
z
" id="DejaVuSans-105"/>
       <path d="M 52 44.1875 
Q 55.375 50.25 60.0625 53.125 
Q 64.75 56 71.09375 56 
Q 79.640625 56 84.28125 50.015625 
Q 88.921875 44.046875 88.921875 33.015625 
L 88.921875 0 
L 79.890625 0 
L 79.890625 32.71875 
Q 79.890625 40.578125 77.09375 44.375 
Q 74.3125 48.1875 68.609375 48.1875 
Q 61.625 48.1875 57.5625 43.546875 
Q 53.515625 38.921875 53.515625 30.90625 
L 53.515625 0 
L 44.484375 0 
L 44.484375 32.71875 
Q 44.484375 40.625 41.703125 44.40625 
Q 38.921875 48.1875 33.109375 48.1875 
Q 26.21875 48.1875 22.15625 43.53125 
Q 18.109375 38.875 18.109375 30.90625 
L 18.109375 0 
L 9.078125 0 
L 9.078125 54.6875 
L 18.109375 54.6875 
L 18.109375 46.1875 
Q 21.1875 51.21875 25.484375 53.609375 
Q 29.78125 56 35.6875 56 
Q 41.65625 56 45.828125 52.96875 
Q 50 49.953125 52 44.1875 
z
" id="DejaVuSans-109"/>
       <path d="M 56.203125 29.59375 
L 56.203125 25.203125 
L 14.890625 25.203125 
Q 15.484375 15.921875 20.484375 11.0625 
Q 25.484375 6.203125 34.421875 6.203125 
Q 39.59375 6.203125 44.453125 7.46875 
Q 49.3125 8.734375 54.109375 11.28125 
L 54.109375 2.78125 
Q 49.265625 0.734375 44.1875 -0.34375 
Q 39.109375 -1.421875 33.890625 -1.421875 
Q 20.796875 -1.421875 13.15625 6.1875 
Q 5.515625 13.8125 5.515625 26.8125 
Q 5.515625 40.234375 12.765625 48.109375 
Q 20.015625 56 32.328125 56 
Q 43.359375 56 49.78125 48.890625 
Q 56.203125 41.796875 56.203125 29.59375 
z
M 47.21875 32.234375 
Q 47.125 39.59375 43.09375 43.984375 
Q 39.0625 48.390625 32.421875 48.390625 
Q 24.90625 48.390625 20.390625 44.140625 
Q 15.875 39.890625 15.1875 32.171875 
z
" id="DejaVuSans-101"/>
       <path id="DejaVuSans-32"/>
       <path d="M 31 75.875 
Q 24.46875 64.65625 21.28125 53.65625 
Q 18.109375 42.671875 18.109375 31.390625 
Q 18.109375 20.125 21.3125 9.0625 
Q 24.515625 -2 31 -13.1875 
L 23.1875 -13.1875 
Q 15.875 -1.703125 12.234375 9.375 
Q 8.59375 20.453125 8.59375 31.390625 
Q 8.59375 42.28125 12.203125 53.3125 
Q 15.828125 64.359375 23.1875 75.875 
z
" id="DejaVuSans-40"/>
       <path d="M 54.890625 33.015625 
L 54.890625 0 
L 45.90625 0 
L 45.90625 32.71875 
Q 45.90625 40.484375 42.875 44.328125 
Q 39.84375 48.1875 33.796875 48.1875 
Q 26.515625 48.1875 22.3125 43.546875 
Q 18.109375 38.921875 18.109375 30.90625 
L 18.109375 0 
L 9.078125 0 
L 9.078125 54.6875 
L 18.109375 54.6875 
L 18.109375 46.1875 
Q 21.34375 51.125 25.703125 53.5625 
Q 30.078125 56 35.796875 56 
Q 45.21875 56 50.046875 50.171875 
Q 54.890625 44.34375 54.890625 33.015625 
z
" id="DejaVuSans-110"/>
       <path d="M 44.28125 53.078125 
L 44.28125 44.578125 
Q 40.484375 46.53125 36.375 47.5 
Q 32.28125 48.484375 27.875 48.484375 
Q 21.1875 48.484375 17.84375 46.4375 
Q 14.5 44.390625 14.5 40.28125 
Q 14.5 37.15625 16.890625 35.375 
Q 19.28125 33.59375 26.515625 31.984375 
L 29.59375 31.296875 
Q 39.15625 29.25 43.1875 25.515625 
Q 47.21875 21.78125 47.21875 15.09375 
Q 47.21875 7.46875 41.1875 3.015625 
Q 35.15625 -1.421875 24.609375 -1.421875 
Q 20.21875 -1.421875 15.453125 -0.5625 
Q 10.6875 0.296875 5.421875 2 
L 5.421875 11.28125 
Q 10.40625 8.6875 15.234375 7.390625 
Q 20.0625 6.109375 24.8125 6.109375 
Q 31.15625 6.109375 34.5625 8.28125 
Q 37.984375 10.453125 37.984375 14.40625 
Q 37.984375 18.0625 35.515625 20.015625 
Q 33.0625 21.96875 24.703125 23.78125 
L 21.578125 24.515625 
Q 13.234375 26.265625 9.515625 29.90625 
Q 5.8125 33.546875 5.8125 39.890625 
Q 5.8125 47.609375 11.28125 51.796875 
Q 16.75 56 26.8125 56 
Q 31.78125 56 36.171875 55.265625 
Q 40.578125 54.546875 44.28125 53.078125 
z
" id="DejaVuSans-115"/>
       <path d="M 8.015625 75.875 
L 15.828125 75.875 
Q 23.140625 64.359375 26.78125 53.3125 
Q 30.421875 42.28125 30.421875 31.390625 
Q 30.421875 20.453125 26.78125 9.375 
Q 23.140625 -1.703125 15.828125 -13.1875 
L 8.015625 -13.1875 
Q 14.5 -2 17.703125 9.0625 
Q 20.90625 20.125 20.90625 31.390625 
Q 20.90625 42.671875 17.703125 53.65625 
Q 14.5 64.65625 8.015625 75.875 
z
" id="DejaVuSans-41"/>
      </defs>
      <use xlink:href="#DejaVuSans-116"/>
      <use x="39.208984" xlink:href="#DejaVuSans-105"/>
      <use x="66.992188" xlink:href="#DejaVuSans-109"/>
      <use x="164.404297" xlink:href="#DejaVuSans-101"/>
      <use x="225.927734" xlink:href="#DejaVuSans-32"/>
      <use x="257.714844" xlink:href="#DejaVuSans-40"/>
      <use x="296.728516" xlink:href="#DejaVuSans-110"/>
      <use x="360.107422" xlink:href="#DejaVuSans-115"/>
      <use x="412.207031" xlink:href="#DejaVuSans-41"/>
     </g>
    </g>
   </g>
   <g id="matplotlib.axis_2">
    <g id="ytick_1">
     <g id="line2d_5">
      <defs>
       <path d="M 0 0 
L -3.5 0 
" id="m759cb1d11f" style="stroke:#000000;stroke-width:0.8;"/>
      </defs>
      <g>
       <use style="stroke:#000000;stroke-width:0.8;" x="72.643527" xlink:href="#m759cb1d11f" y="206.910957"/>
      </g>
     </g>
     <g id="text_6">
      <!-- $\mathdefault{10^{-2}}$ -->
      <g transform="translate(32.743527 212.229863)scale(0.14 -0.14)">
       <defs>
        <path d="M 10.59375 35.5 
L 73.1875 35.5 
L 73.1875 27.203125 
L 10.59375 27.203125 
z
" id="DejaVuSans-8722"/>
        <path d="M 19.1875 8.296875 
L 53.609375 8.296875 
L 53.609375 0 
L 7.328125 0 
L 7.328125 8.296875 
Q 12.9375 14.109375 22.625 23.890625 
Q 32.328125 33.6875 34.8125 36.53125 
Q 39.546875 41.84375 41.421875 45.53125 
Q 43.3125 49.21875 43.3125 52.78125 
Q 43.3125 58.59375 39.234375 62.25 
Q 35.15625 65.921875 28.609375 65.921875 
Q 23.96875 65.921875 18.8125 64.3125 
Q 13.671875 62.703125 7.8125 59.421875 
L 7.8125 69.390625 
Q 13.765625 71.78125 18.9375 73 
Q 24.125 74.21875 28.421875 74.21875 
Q 39.75 74.21875 46.484375 68.546875 
Q 53.21875 62.890625 53.21875 53.421875 
Q 53.21875 48.921875 51.53125 44.890625 
Q 49.859375 40.875 45.40625 35.40625 
Q 44.1875 33.984375 37.640625 27.21875 
Q 31.109375 20.453125 19.1875 8.296875 
z
" id="DejaVuSans-50"/>
       </defs>
       <use transform="translate(0 0.765625)" xlink:href="#DejaVuSans-49"/>
       <use transform="translate(63.623047 0.765625)" xlink:href="#DejaVuSans-48"/>
       <use transform="translate(128.203125 39.046875)scale(0.7)" xlink:href="#DejaVuSans-8722"/>
       <use transform="translate(186.855469 39.046875)scale(0.7)" xlink:href="#DejaVuSans-50"/>
      </g>
     </g>
    </g>
    <g id="ytick_2">
     <g id="line2d_6">
      <g>
       <use style="stroke:#000000;stroke-width:0.8;" x="72.643527" xlink:href="#m759cb1d11f" y="112.077479"/>
      </g>
     </g>
     <g id="text_7">
      <!-- $\mathdefault{10^{-1}}$ -->
      <g transform="translate(32.743527 117.396385)scale(0.14 -0.14)">
       <use transform="translate(0 0.684375)" xlink:href="#DejaVuSans-49"/>
       <use transform="translate(63.623047 0.684375)" xlink:href="#DejaVuSans-48"/>
       <use transform="translate(128.203125 38.965625)scale(0.7)" xlink:href="#DejaVuSans-8722"/>
       <use transform="translate(186.855469 38.965625)scale(0.7)" xlink:href="#DejaVuSans-49"/>
      </g>
     </g>
    </g>
    <g id="ytick_3">
     <g id="line2d_7">
      <g>
       <use style="stroke:#000000;stroke-width:0.8;" x="72.643527" xlink:href="#m759cb1d11f" y="17.244"/>
      </g>
     </g>
     <g id="text_8">
      <!-- $\mathdefault{10^{0}}$ -->
      <g transform="translate(41.003527 22.562906)scale(0.14 -0.14)">
       <use transform="translate(0 0.765625)" xlink:href="#DejaVuSans-49"/>
       <use transform="translate(63.623047 0.765625)" xlink:href="#DejaVuSans-48"/>
       <use transform="translate(128.203125 39.046875)scale(0.7)" xlink:href="#DejaVuSans-48"/>
      </g>
     </g>
    </g>
    <g id="ytick_4">
     <g id="line2d_8">
      <defs>
       <path d="M 0 0 
L -2 0 
" id="m1767921e8e" style="stroke:#000000;stroke-width:0.6;"/>
      </defs>
      <g>
       <use style="stroke:#000000;stroke-width:0.6;" x="72.643527" xlink:href="#m1767921e8e" y="273.196714"/>
      </g>
     </g>
    </g>
    <g id="ytick_5">
     <g id="line2d_9">
      <g>
       <use style="stroke:#000000;stroke-width:0.6;" x="72.643527" xlink:href="#m1767921e8e" y="256.497367"/>
      </g>
     </g>
    </g>
    <g id="ytick_6">
     <g id="line2d_10">
      <g>
       <use style="stroke:#000000;stroke-width:0.6;" x="72.643527" xlink:href="#m1767921e8e" y="244.648992"/>
      </g>
     </g>
    </g>
    <g id="ytick_7">
     <g id="line2d_11">
      <g>
       <use style="stroke:#000000;stroke-width:0.6;" x="72.643527" xlink:href="#m1767921e8e" y="235.458679"/>
      </g>
     </g>
    </g>
    <g id="ytick_8">
     <g id="line2d_12">
      <g>
       <use style="stroke:#000000;stroke-width:0.6;" x="72.643527" xlink:href="#m1767921e8e" y="227.949646"/>
      </g>
     </g>
    </g>
    <g id="ytick_9">
     <g id="line2d_13">
      <g>
       <use style="stroke:#000000;stroke-width:0.6;" x="72.643527" xlink:href="#m1767921e8e" y="221.600849"/>
      </g>
     </g>
    </g>
    <g id="ytick_10">
     <g id="line2d_14">
      <g>
       <use style="stroke:#000000;stroke-width:0.6;" x="72.643527" xlink:href="#m1767921e8e" y="216.101271"/>
      </g>
     </g>
    </g>
    <g id="ytick_11">
     <g id="line2d_15">
      <g>
       <use style="stroke:#000000;stroke-width:0.6;" x="72.643527" xlink:href="#m1767921e8e" y="211.250299"/>
      </g>
     </g>
    </g>
    <g id="ytick_12">
     <g id="line2d_16">
      <g>
       <use style="stroke:#000000;stroke-width:0.6;" x="72.643527" xlink:href="#m1767921e8e" y="178.363235"/>
      </g>
     </g>
    </g>
    <g id="ytick_13">
     <g id="line2d_17">
      <g>
       <use style="stroke:#000000;stroke-width:0.6;" x="72.643527" xlink:href="#m1767921e8e" y="161.663889"/>
      </g>
     </g>
    </g>
    <g id="ytick_14">
     <g id="line2d_18">
      <g>
       <use style="stroke:#000000;stroke-width:0.6;" x="72.643527" xlink:href="#m1767921e8e" y="149.815514"/>
      </g>
     </g>
    </g>
    <g id="ytick_15">
     <g id="line2d_19">
      <g>
       <use style="stroke:#000000;stroke-width:0.6;" x="72.643527" xlink:href="#m1767921e8e" y="140.6252"/>
      </g>
     </g>
    </g>
    <g id="ytick_16">
     <g id="line2d_20">
      <g>
       <use style="stroke:#000000;stroke-width:0.6;" x="72.643527" xlink:href="#m1767921e8e" y="133.116167"/>
      </g>
     </g>
    </g>
    <g id="ytick_17">
     <g id="line2d_21">
      <g>
       <use style="stroke:#000000;stroke-width:0.6;" x="72.643527" xlink:href="#m1767921e8e" y="126.76737"/>
      </g>
     </g>
    </g>
    <g id="ytick_18">
     <g id="line2d_22">
      <g>
       <use style="stroke:#000000;stroke-width:0.6;" x="72.643527" xlink:href="#m1767921e8e" y="121.267792"/>
      </g>
     </g>
    </g>
    <g id="ytick_19">
     <g id="line2d_23">
      <g>
       <use style="stroke:#000000;stroke-width:0.6;" x="72.643527" xlink:href="#m1767921e8e" y="116.416821"/>
      </g>
     </g>
    </g>
    <g id="ytick_20">
     <g id="line2d_24">
      <g>
       <use style="stroke:#000000;stroke-width:0.6;" x="72.643527" xlink:href="#m1767921e8e" y="83.529757"/>
      </g>
     </g>
    </g>
    <g id="ytick_21">
     <g id="line2d_25">
      <g>
       <use style="stroke:#000000;stroke-width:0.6;" x="72.643527" xlink:href="#m1767921e8e" y="66.83041"/>
      </g>
     </g>
    </g>
    <g id="ytick_22">
     <g id="line2d_26">
      <g>
       <use style="stroke:#000000;stroke-width:0.6;" x="72.643527" xlink:href="#m1767921e8e" y="54.982035"/>
      </g>
     </g>
    </g>
    <g id="ytick_23">
     <g id="line2d_27">
      <g>
       <use style="stroke:#000000;stroke-width:0.6;" x="72.643527" xlink:href="#m1767921e8e" y="45.791722"/>
      </g>
     </g>
    </g>
    <g id="ytick_24">
     <g id="line2d_28">
      <g>
       <use style="stroke:#000000;stroke-width:0.6;" x="72.643527" xlink:href="#m1767921e8e" y="38.282689"/>
      </g>
     </g>
    </g>
    <g id="ytick_25">
     <g id="line2d_29">
      <g>
       <use style="stroke:#000000;stroke-width:0.6;" x="72.643527" xlink:href="#m1767921e8e" y="31.933892"/>
      </g>
     </g>
    </g>
    <g id="ytick_26">
     <g id="line2d_30">
      <g>
       <use style="stroke:#000000;stroke-width:0.6;" x="72.643527" xlink:href="#m1767921e8e" y="26.434314"/>
      </g>
     </g>
    </g>
    <g id="ytick_27">
     <g id="line2d_31">
      <g>
       <use style="stroke:#000000;stroke-width:0.6;" x="72.643527" xlink:href="#m1767921e8e" y="21.583342"/>
      </g>
     </g>
    </g>
    <g id="text_9">
     <!-- $Z_n$ -->
     <g transform="translate(25.416027 164.682)rotate(-90)scale(0.16 -0.16)">
      <defs>
       <path d="M 13.09375 72.90625 
L 70.3125 72.90625 
L 68.890625 65.375 
L 12.40625 8.296875 
L 58.890625 8.296875 
L 57.328125 0 
L -2.203125 0 
L -0.78125 7.515625 
L 55.71875 64.59375 
L 11.53125 64.59375 
z
" id="DejaVuSans-Oblique-90"/>
       <path d="M 55.71875 33.015625 
L 49.3125 0 
L 40.28125 0 
L 46.6875 32.671875 
Q 47.125 34.96875 47.359375 36.71875 
Q 47.609375 38.484375 47.609375 39.5 
Q 47.609375 43.609375 45.015625 45.890625 
Q 42.4375 48.1875 37.796875 48.1875 
Q 30.5625 48.1875 25.34375 43.375 
Q 20.125 38.578125 18.5 30.328125 
L 12.5 0 
L 3.515625 0 
L 14.109375 54.6875 
L 23.09375 54.6875 
L 21.296875 46.09375 
Q 25.046875 50.828125 30.3125 53.40625 
Q 35.59375 56 41.40625 56 
Q 48.640625 56 52.609375 52.09375 
Q 56.59375 48.1875 56.59375 41.109375 
Q 56.59375 39.359375 56.375 37.359375 
Q 56.15625 35.359375 55.71875 33.015625 
z
" id="DejaVuSans-Oblique-110"/>
      </defs>
      <use transform="translate(0 0.09375)" xlink:href="#DejaVuSans-Oblique-90"/>
      <use transform="translate(68.505859 -16.3125)scale(0.7)" xlink:href="#DejaVuSans-Oblique-110"/>
     </g>
    </g>
   </g>
   <g id="line2d_32">
    <path clip-path="url(#pf7eb23b54a)" d="M 84.227791 17.244 
L 84.320002 212.831597 
L 84.366339 212.518937 
L 84.551687 234.57854 
L 84.644362 236.951623 
L 84.737036 230.127275 
L 84.783373 232.365328 
L 85.107732 241.708748 
L 85.200406 239.953906 
L 85.385755 233.128833 
L 85.432092 233.512031 
L 85.478429 233.066607 
L 85.524766 234.033876 
L 85.61744 233.677356 
L 85.663777 234.377458 
L 85.756451 234.329343 
L 85.802788 234.618875 
L 85.895462 232.764596 
L 85.941799 232.934689 
L 86.034473 231.969894 
L 86.127147 229.645229 
L 86.173485 229.867564 
L 86.219822 229.810073 
L 86.266159 229.338803 
L 86.312496 229.774181 
L 86.497844 231.331577 
L 86.636855 229.939542 
L 86.775866 230.629679 
L 86.961215 231.660765 
L 87.053889 230.257747 
L 87.146563 230.498025 
L 87.1929 230.923758 
L 87.239237 230.886883 
L 87.285574 229.67385 
L 87.378248 230.083876 
L 87.795282 232.44181 
L 87.98063 233.386512 
L 88.351326 234.772508 
L 89.278068 236.492962 
L 89.880449 238.83912 
L 90.34382 239.660963 
L 90.529168 240.480926 
L 90.621842 240.676805 
L 90.946202 241.900936 
L 91.455909 243.053467 
L 91.548583 243.112941 
L 91.733932 243.551727 
L 92.336313 244.814065 
L 92.70701 245.945956 
L 92.753347 245.945956 
L 92.985032 246.448422 
L 93.031369 246.351729 
L 93.077706 246.480703 
L 93.541077 247.362005 
L 93.772762 247.882158 
L 93.911773 248.038376 
L 94.097122 248.251338 
L 94.421481 248.53324 
L 94.606829 248.782919 
L 94.977526 249.148813 
L 95.116537 249.091427 
L 95.348222 249.402264 
L 95.904267 250.550616 
L 96.367638 251.854374 
L 96.691997 252.248734 
L 96.923682 252.37275 
L 97.387053 253.162756 
L 97.43339 253.137442 
L 97.711412 253.264167 
L 97.804086 253.238791 
L 98.128446 253.595489 
L 98.267457 253.723634 
L 98.499142 253.865055 
L 98.638153 253.89082 
L 98.777165 254.032818 
L 98.916176 254.019889 
L 99.194198 254.331313 
L 99.286872 254.409538 
L 99.472221 254.605754 
L 99.611232 254.842454 
L 99.750243 255.040748 
L 99.79658 255.014254 
L 99.889254 254.948092 
L 100.028265 255.213379 
L 100.213613 255.587675 
L 100.537973 256.06038 
L 101.279366 256.772858 
L 101.464714 257.008482 
L 101.696399 257.259445 
L 101.835411 257.273432 
L 102.391455 257.709412 
L 102.808489 258.436866 
L 103.132848 258.827254 
L 103.271859 259.148107 
L 103.410871 259.397763 
L 103.457208 259.368313 
L 104.244938 260.006173 
L 104.383949 260.021125 
L 104.52296 260.125942 
L 104.615634 260.200975 
L 104.661971 260.140938 
L 105.032668 260.472232 
L 105.125342 260.578205 
L 105.31069 260.714858 
L 105.774061 261.03549 
L 105.820398 260.989532 
L 105.866735 261.096846 
L 106.052083 261.142924 
L 106.144757 261.096846 
L 106.330105 261.219834 
L 106.515454 260.958922 
L 106.608128 261.096846 
L 106.839813 260.472232 
L 106.88615 260.457115 
L 107.071498 260.006173 
L 107.117835 260.125942 
L 107.349521 259.441977 
L 107.442195 259.619311 
L 107.488532 259.501003 
L 107.67388 259.206714 
L 107.812891 258.609915 
L 107.998239 258.494468 
L 108.137251 258.264541 
L 108.368936 258.451259 
L 108.507947 258.48006 
L 109.898059 260.457115 
L 110.129744 260.836709 
L 111.751541 263.110139 
L 111.983227 263.385088 
L 112.122238 263.580281 
L 112.40026 264.088854 
L 112.492934 264.121882 
L 112.863631 264.587074 
L 113.18799 264.821655 
L 113.836709 265.396978 
L 114.022057 265.550624 
L 114.161068 265.567731 
L 114.531765 265.842417 
L 114.717113 265.842417 
L 115.087809 265.980451 
L 115.226821 266.032333 
L 115.597517 266.257913 
L 115.782865 266.362445 
L 116.246236 266.60739 
L 116.431584 266.712815 
L 116.848618 266.924476 
L 116.941292 266.906796 
L 116.987629 266.959859 
L 117.033966 266.906796 
L 117.311988 266.871458 
L 117.636348 266.995272 
L 118.7021 267.333226 
L 118.794774 267.297521 
L 119.304482 267.746073 
L 119.721515 267.691988 
L 119.999538 267.782169 
L 120.416571 267.981265 
L 120.509245 267.999413 
L 120.740931 268.108466 
L 121.992031 268.954272 
L 123.567491 269.496566 
L 123.845514 269.496566 
L 124.308884 269.571928 
L 124.772255 269.666326 
L 125.235625 269.96986 
L 125.513648 270.103363 
L 125.79167 270.103363 
L 126.11603 270.160712 
L 126.208704 270.198988 
L 126.255041 270.160712 
L 128.293871 270.894121 
L 128.710905 270.991602 
L 128.896253 271.011126 
L 129.591309 271.38385 
L 129.73032 271.522024 
L 129.869331 271.502256 
L 130.240028 271.541801 
L 130.610724 271.640828 
L 130.981421 271.819681 
L 131.491128 272.159647 
L 131.676477 272.280308 
L 132.09351 272.179733 
L 132.278858 272.219933 
L 132.556881 272.219933 
L 133.390948 272.300453 
L 133.576296 272.360946 
L 133.854318 272.360946 
L 135.151756 272.441741 
L 135.383441 272.502443 
L 135.615127 272.522696 
L 135.707801 272.482199 
L 135.754138 272.522696 
L 137.097913 273.176126 
L 137.329598 273.42386 
L 137.792968 273.527524 
L 138.256339 273.798278 
L 139.090406 273.881946 
L 139.461103 274.091863 
L 139.785462 274.049794 
L 140.109821 274.155048 
L 140.526855 274.239445 
L 141.129237 274.345184 
L 141.685281 274.493678 
L 141.916967 274.472432 
L 142.612023 274.685388 
L 142.936382 274.79228 
L 143.399753 274.899451 
L 143.585101 275.006901 
L 143.816786 275.006901 
L 144.511842 275.114633 
L 144.882539 275.179407 
L 145.948291 275.244283 
L 146.133639 275.330944 
L 146.504336 275.570207 
L 146.643347 275.592027 
L 146.782358 275.657557 
L 147.106717 275.745093 
L 147.292066 275.89873 
L 147.709099 275.986781 
L 148.404155 276.097109 
L 148.682177 276.119211 
L 149.469907 276.207734 
L 149.74793 276.340878 
L 150.118626 276.42988 
L 150.350311 276.519075 
L 151.462401 276.608463 
L 151.972109 276.74291 
L 152.296468 276.832786 
L 153.824664 277.49032 
L 154.102687 277.444634 
L 154.612394 277.581843 
L 154.890417 277.558943 
L 155.817158 277.65062 
L 156.048843 277.65062 
L 156.280528 277.719511 
L 156.465877 277.765503 
L 156.88291 277.857641 
L 157.624303 277.949986 
L 157.902325 277.973104 
L 158.226685 277.92688 
L 158.504707 277.949986 
L 160.404527 278.042538 
L 160.682549 278.065708 
L 161.516616 278.158521 
L 161.562953 278.205006 
L 161.60929 278.158521 
L 161.701964 278.181757 
L 161.93365 278.344776 
L 162.072661 278.344776 
L 162.211672 278.391472 
L 162.350683 278.391472 
L 162.767717 278.672764 
L 163.370098 278.766957 
L 163.879806 278.932314 
L 164.157828 278.908651 
L 164.343177 278.932314 
L 164.528525 278.885001 
L 164.806547 278.861365 
L 165.130907 278.932314 
L 165.362592 279.027102 
L 165.594277 279.12211 
L 166.011311 279.217337 
L 166.66003 279.312784 
L 166.845378 279.360591 
L 170.227983 279.456372 
L 170.459668 279.576412 
L 170.691354 279.528354 
L 170.876702 279.600462 
L 171.108387 279.600462 
L 172.17414 279.696803 
L 172.683847 279.841738 
L 173.610588 279.938645 
L 173.795937 280.035781 
L 174.073959 279.987184 
L 174.259307 280.035781 
L 174.630004 280.133147 
L 175.093374 280.255178 
L 175.32506 280.230743 
L 175.556745 280.328571 
L 175.78843 280.328571 
L 178.522317 280.230743 
L 178.707665 280.255178 
L 178.93935 280.255178 
L 180.097777 279.769206 
L 180.190451 279.720923 
L 181.163529 277.949986 
L 181.534226 278.181757 
L 182.09027 278.344776 
L 182.229281 278.321448 
L 182.599978 278.391472 
L 182.831663 278.485023 
L 183.387708 278.672764 
L 183.526719 278.696292 
L 183.943753 278.790538 
L 184.175438 278.766957 
L 184.360786 278.814134 
L 185.426539 278.908651 
L 185.56555 278.885001 
L 186.167931 278.461615 
L 186.492291 277.834587 
L 187.326358 274.835115 
L 187.372695 274.856549 
L 187.743392 273.444572 
L 187.92874 272.219933 
L 188.253099 271.581383 
L 188.299436 271.79977 
L 188.345773 271.759977 
L 188.484784 271.128464 
L 188.531122 271.148053 
L 188.901818 270.796871 
L 189.17984 270.179846 
L 189.365189 270.275649 
L 189.550537 269.76094 
L 189.596874 269.912777 
L 189.643211 269.798847 
L 189.874896 269.817813 
L 190.013907 269.817813 
L 190.152919 269.59079 
L 190.29193 269.38378 
L 190.430941 269.30876 
L 190.569952 269.290027 
L 190.708963 268.861491 
L 190.801637 268.824437 
L 191.218671 268.309149 
L 191.450356 268.345742 
L 191.635704 267.836373 
L 191.682042 267.963126 
L 191.86739 267.548108 
L 191.960064 267.566065 
L 192.006401 267.854456 
L 192.099075 267.764117 
L 192.284423 267.368962 
L 192.516109 267.440527 
L 192.608783 267.333226 
L 192.65512 267.494282 
L 193.257502 267.494282 
L 193.303839 267.244021 
L 193.396513 267.315369 
L 193.535524 267.261847 
L 193.581861 267.244021 
L 193.628198 267.368962 
L 193.767209 266.871458 
L 193.952557 266.765628 
L 194.091569 266.467243 
L 194.415928 266.695225 
L 194.601276 266.765628 
L 194.740287 266.765628 
L 194.971973 266.783248 
L 195.667029 266.889123 
L 196.223073 266.995272 
L 197.010803 267.101695 
L 197.520511 267.208394 
L 197.705859 267.244021 
L 198.122893 267.297521 
L 199.513005 267.404729 
L 200.115386 267.530158 
L 200.393409 267.530158 
L 201.505498 267.637974 
L 202.015206 267.728037 
L 202.89561 267.836373 
L 203.35898 267.908755 
L 204.193048 268.017568 
L 204.610081 268.072082 
L 205.536822 268.181328 
L 205.907519 268.217808 
L 207.065945 268.327442 
L 207.529316 268.400693 
L 208.595068 268.510815 
L 208.919428 268.547588 
L 209.151113 268.565987 
L 209.521809 268.621233 
L 209.753495 268.639664 
L 210.587562 268.750428 
L 211.050932 268.824437 
L 211.328955 268.824437 
L 212.765403 268.917135 
L 213.1361 268.954272 
L 213.831156 269.047263 
L 214.155515 269.084518 
L 214.340863 269.103159 
L 214.71156 269.140464 
L 217.213761 269.233877 
L 217.538121 269.252585 
L 218.974569 269.327502 
L 219.206255 269.38378 
L 220.828052 269.477746 
L 221.198748 269.515393 
L 222.681534 269.609661 
L 223.005894 269.628541 
L 224.210657 269.723068 
L 224.488679 269.723068 
L 226.990881 269.817813 
L 227.268903 269.817813 
L 229.493082 269.912777 
L 229.956452 269.988906 
L 232.319642 270.084265 
L 232.644002 270.103363 
L 235.470562 270.198988 
L 235.794922 270.21814 
L 238.945842 270.314032 
L 239.223864 270.314032 
L 242.28211 270.410148 
L 242.60647 270.429398 
L 242.838155 270.429398 
L 243.023503 270.487203 
L 243.347863 270.448657 
L 243.672222 270.467926 
L 246.962153 270.564402 
L 247.33285 270.603056 
L 250.669118 270.506489 
L 251.086151 270.448657 
L 251.642196 270.352452 
L 252.5226 270.103363 
L 252.985971 270.00796 
L 253.263993 269.893767 
L 253.866375 269.817813 
L 254.654105 269.30876 
L 254.839453 269.271302 
L 255.117476 269.215178 
L 255.256487 269.121807 
L 256.507587 269.084518 
L 256.692936 268.88003 
L 256.831947 268.84296 
L 257.387991 268.731947 
L 258.917114 268.84296 
L 259.334148 268.898578 
L 261.280304 268.84296 
L 261.419316 268.805922 
L 263.226461 268.898578 
L 263.597157 268.935699 
L 267.165111 269.028648 
L 267.350459 269.047263 
L 269.945334 268.954272 
L 270.316031 268.917135 
L 270.455042 268.898578 
L 270.733064 268.84296 
L 270.872076 268.898578 
L 271.567132 268.805922 
L 272.076839 268.492441 
L 272.21585 268.492441 
L 272.447536 268.492441 
L 273.837647 267.872548 
L 274.022996 267.782169 
L 274.347355 267.800229 
L 274.996074 267.710008 
L 275.181422 267.512216 
L 275.459445 267.512216 
L 275.552119 267.440527 
L 275.644793 267.494282 
L 275.876478 267.244021 
L 276.339849 266.959859 
L 276.47886 266.853801 
L 276.756882 266.853801 
L 277.683623 266.836151 
L 277.822635 266.712815 
L 278.84205 266.624942 
L 279.073735 266.572309 
L 279.444432 266.554779 
L 279.62978 266.345005 
L 279.722454 266.414811 
L 279.768791 266.345005 
L 279.954139 266.015032 
L 280.046813 266.101611 
L 280.09315 266.032333 
L 280.185825 266.049641 
L 280.324836 265.739195 
L 280.371173 265.756381 
L 280.463847 265.790774 
L 280.649195 265.550624 
L 280.88088 265.533524 
L 280.927217 265.516431 
L 281.019892 265.328874 
L 281.066229 265.379941 
L 281.436925 265.074484 
L 281.483262 264.9226 
L 281.575936 264.956304 
L 281.622273 264.9226 
L 281.761285 264.737723 
L 281.807622 264.804855 
L 281.946633 264.6707 
L 281.99297 264.6707 
L 282.224655 264.270836 
L 282.270992 264.237688 
L 282.363666 264.370438 
L 282.549015 264.254259 
L 282.595352 264.221125 
L 282.641689 264.30401 
L 282.7807 264.320607 
L 283.058722 264.254259 
L 283.475756 264.055853 
L 283.707441 263.482569 
L 283.753778 263.515114 
L 284.634182 263.56398 
L 284.773193 263.645552 
L 285.468249 263.515114 
L 285.93162 263.4338 
L 285.977957 263.385088 
L 286.024294 263.45005 
L 286.673013 263.401319 
L 286.858361 263.320229 
L 287.18272 263.352646 
L 287.321732 263.30403 
L 288.155799 263.401319 
L 288.711843 263.482569 
L 289.08254 263.531396 
L 289.128877 263.694573 
L 289.175214 263.629225 
L 289.314225 263.56398 
L 289.406899 263.531396 
L 289.684922 263.385088 
L 289.823933 263.336434 
L 289.962944 263.077912 
L 290.009281 263.142391 
L 290.055618 263.061808 
L 290.148292 263.061808 
L 290.287303 263.158526 
L 290.518989 262.933204 
L 290.611663 262.725074 
L 290.797011 263.142391 
L 290.936022 262.581597 
L 290.982359 262.613438 
L 291.075033 262.661245 
L 291.214045 262.51799 
L 291.44573 262.741046 
L 291.538404 262.502104 
L 291.584741 262.549781 
L 291.723752 262.901115 
L 292.557819 262.661245 
L 292.604156 262.470349 
L 292.696831 262.502104 
L 292.882179 262.502104 
L 292.974853 262.280334 
L 293.02119 262.3594 
L 293.206538 262.486223 
L 293.252875 262.185654 
L 293.345549 262.296135 
L 293.391886 262.406913 
L 293.438223 262.280334 
L 293.577235 261.949903 
L 293.623572 261.981259 
L 293.762583 262.012638 
L 293.994268 260.989532 
L 294.133279 261.358637 
L 294.272291 261.173671 
L 294.318628 261.235234 
L 294.364965 261.142924 
L 294.642987 260.958922 
L 294.735661 260.745287 
L 294.781998 260.851966 
L 294.967346 260.790973 
L 295.106358 260.91305 
L 295.245369 260.790973 
L 295.430717 260.472232 
L 295.523391 260.623706 
L 295.569728 260.532755 
L 296.450132 260.457115 
L 296.589143 260.396704 
L 298.349952 260.306252 
L 298.442626 260.231027 
L 298.488963 260.396704 
L 298.581637 260.366531 
L 298.720648 260.2611 
L 298.905996 260.366531 
L 301.547209 260.472232 
L 301.778894 260.563049 
L 301.917905 260.381615 
L 302.195928 260.321313 
L 302.381276 260.396704 
L 302.520287 260.442004 
L 303.215343 260.547899 
L 303.447028 260.547899 
L 303.678714 260.396704 
L 303.910399 260.547899 
L 304.744466 260.381615 
L 305.949229 260.487354 
L 306.458937 260.547899 
L 309.100149 260.654068 
L 309.517183 260.684452 
L 311.231654 260.790973 
L 311.648688 260.821458 
L 311.973047 260.821458 
L 313.409496 260.928335 
L 313.919204 260.989532 
L 316.884775 261.096846 
L 317.301809 261.127559 
L 318.830932 261.020165 
L 318.969943 261.066156 
L 319.155291 261.158294 
L 320.12837 261.219834 
L 320.267381 261.451432 
L 320.360055 261.343191 
L 320.545403 261.127559 
L 320.638077 261.158294 
L 320.777088 261.081498 
L 321.286796 261.142924 
L 321.472144 261.096846 
L 322.862256 261.204441 
L 323.371964 261.26605 
L 323.649986 261.26605 
L 323.974345 261.26605 
L 324.113357 261.26605 
L 324.53039 261.296889 
L 326.244861 261.405008 
L 326.754569 261.466918 
L 329.534793 261.575485 
L 330.0445 261.637652 
L 331.15659 261.668771 
L 331.295601 261.824718 
L 331.758971 261.871618 
L 332.454027 261.746671 
L 333.288094 261.637652 
L 333.51978 261.606557 
L 333.751465 261.575485 
L 334.863554 261.312317 
L 339.358249 261.312317 
L 339.49726 261.1122 
L 340.748361 261.219834 
L 341.211731 261.281467 
L 341.536091 261.250639 
L 341.767776 261.281467 
L 342.138473 261.296889 
L 342.462832 261.296889 
L 343.806607 261.405008 
L 344.22364 261.435952 
L 344.640674 261.389545 
L 345.01137 261.405008 
L 346.030786 261.296889 
L 346.494156 261.235234 
L 346.91119 261.26605 
L 349.598739 261.158294 
L 349.876762 261.05082 
L 350.015773 261.127559 
L 350.154784 261.1122 
L 351.822918 261.004845 
L 351.961929 260.958922 
L 352.4253 260.89777 
L 352.610648 260.775739 
L 352.703322 260.89777 
L 352.749659 260.851966 
L 352.981345 260.821458 
L 355.854242 260.91305 
L 356.03959 260.958922 
L 356.224939 260.943626 
L 359.005162 261.05082 
L 359.329522 261.05082 
L 362.573116 260.943626 
L 362.758464 260.91305 
L 363.314509 260.989532 
L 365.770373 260.882497 
L 366.094732 260.851966 
L 366.187406 260.89777 
L 366.233743 260.851966 
L 371.608842 260.958922 
L 372.072213 261.004845 
L 378.188705 260.89777 
L 378.513064 260.882497 
L 378.698412 260.89777 
L 379.578816 260.790973 
L 380.181198 260.699652 
L 380.366546 260.714858 
L 382.312703 260.821458 
L 382.776074 260.867229 
L 385.046589 260.974224 
L 385.50996 261.020165 
L 387.363442 261.127559 
L 387.687802 261.127559 
L 390.050992 261.235234 
L 390.421688 261.250639 
L 396.260158 261.158294 
L 396.491843 261.127559 
L 396.86254 261.142924 
L 399.735437 261.03549 
L 400.01346 261.03549 
L 400.337819 261.03549 
L 402.144964 261.142924 
L 402.469324 261.142924 
L 407.473726 261.235234 
L 407.659074 261.250639 
L 416.972823 261.173671 
L 417.204509 261.03549 
L 417.667879 260.989532 
L 421.467518 261.096846 
L 421.838214 261.127559 
L 422.347922 261.066156 
L 422.950304 261.020165 
L 423.135652 260.928335 
L 423.321 260.882497 
L 426.888954 260.989532 
L 427.25965 261.004845 
L 429.344818 261.03549 
L 429.344818 261.03549 
" style="fill:none;stroke:#1f77b4;stroke-linecap:square;stroke-width:1.5;"/>
   </g>
   <g id="patch_3">
    <path d="M 72.643527 293.56 
L 72.643527 17.244 
" style="fill:none;stroke:#000000;stroke-linecap:square;stroke-linejoin:miter;stroke-width:0.8;"/>
   </g>
   <g id="patch_4">
    <path d="M 443.34 293.56 
L 443.34 17.244 
" style="fill:none;stroke:#000000;stroke-linecap:square;stroke-linejoin:miter;stroke-width:0.8;"/>
   </g>
   <g id="patch_5">
    <path d="M 72.643527 293.56 
L 443.34 293.56 
" style="fill:none;stroke:#000000;stroke-linecap:square;stroke-linejoin:miter;stroke-width:0.8;"/>
   </g>
   <g id="patch_6">
    <path d="M 72.643527 17.244 
L 443.34 17.244 
" style="fill:none;stroke:#000000;stroke-linecap:square;stroke-linejoin:miter;stroke-width:0.8;"/>
   </g>
  </g>
 </g>
 <defs>
  <clipPath id="pf7eb23b54a">
   <rect height="276.316" width="370.696473" x="72.643527" y="17.244"/>
  </clipPath>
 </defs>
</svg>
