<?xml version="1.0" encoding="UTF-8" standalone="no"?>
<!-- Created with Inkscape (http://www.inkscape.org/) -->

<svg
   xmlns:dc="http://purl.org/dc/elements/1.1/"
   xmlns:cc="http://creativecommons.org/ns#"
   xmlns:rdf="http://www.w3.org/1999/02/22-rdf-syntax-ns#"
   xmlns:svg="http://www.w3.org/2000/svg"
   xmlns="http://www.w3.org/2000/svg"
   xmlns:sodipodi="http://sodipodi.sourceforge.net/DTD/sodipodi-0.dtd"
   xmlns:inkscape="http://www.inkscape.org/namespaces/inkscape"
   version="1.1"
   id="svg2"
   width="1400.8776"
   height="433.90945"
   viewBox="0 0 1400.8775 433.90945"
   sodipodi:docname="umbrella_sampling.png.svg"
   inkscape:version="0.92.5 (2060ec1f9f, 2020-04-08)">
  <metadata
     id="metadata8">
    <rdf:RDF>
      <cc:Work
         rdf:about="">
        <dc:format>image/svg+xml</dc:format>
        <dc:type
           rdf:resource="http://purl.org/dc/dcmitype/StillImage" />
        <dc:title></dc:title>
      </cc:Work>
    </rdf:RDF>
  </metadata>
  <defs
     id="defs6">
    <marker
       inkscape:stockid="Arrow1Lstart"
       orient="auto"
       refY="0"
       refX="0"
       id="Arrow1Lstart"
       style="overflow:visible"
       inkscape:isstock="true">
      <path
         id="path1047"
         d="M 0,0 5,-5 -12.5,0 5,5 Z"
         style="fill:#000000;fill-opacity:1;fill-rule:evenodd;stroke:#000000;stroke-width:1.00000003pt;stroke-opacity:1"
         transform="matrix(0.8,0,0,0.8,10,0)"
         inkscape:connector-curvature="0" />
    </marker>
    <marker
       inkscape:stockid="Arrow1Lend"
       orient="auto"
       refY="0"
       refX="0"
       id="Arrow1Lend"
       style="overflow:visible"
       inkscape:isstock="true">
      <path
         id="path1050"
         d="M 0,0 5,-5 -12.5,0 5,5 Z"
         style="fill:#000000;fill-opacity:1;fill-rule:evenodd;stroke:#000000;stroke-width:1.00000003pt;stroke-opacity:1"
         transform="matrix(-0.8,0,0,-0.8,-10,0)"
         inkscape:connector-curvature="0" />
    </marker>
    <marker
       inkscape:stockid="Arrow1Lstart"
       orient="auto"
       refY="0"
       refX="0"
       id="Arrow1Lstart-6"
       style="overflow:visible"
       inkscape:isstock="true">
      <path
         inkscape:connector-curvature="0"
         id="path1047-2"
         d="M 0,0 5,-5 -12.5,0 5,5 Z"
         style="fill:#000000;fill-opacity:1;fill-rule:evenodd;stroke:#000000;stroke-width:1.00000003pt;stroke-opacity:1"
         transform="matrix(0.8,0,0,0.8,10,0)" />
    </marker>
    <marker
       inkscape:stockid="Arrow1Lend"
       orient="auto"
       refY="0"
       refX="0"
       id="Arrow1Lend-6"
       style="overflow:visible"
       inkscape:isstock="true">
      <path
         inkscape:connector-curvature="0"
         id="path1050-1"
         d="M 0,0 5,-5 -12.5,0 5,5 Z"
         style="fill:#000000;fill-opacity:1;fill-rule:evenodd;stroke:#000000;stroke-width:1.00000003pt;stroke-opacity:1"
         transform="matrix(-0.8,0,0,-0.8,-10,0)" />
    </marker>
    <marker
       inkscape:stockid="Arrow1Lstart"
       orient="auto"
       refY="0"
       refX="0"
       id="Arrow1Lstart-6-0"
       style="overflow:visible"
       inkscape:isstock="true">
      <path
         inkscape:connector-curvature="0"
         id="path1047-2-2"
         d="M 0,0 5,-5 -12.5,0 5,5 Z"
         style="fill:#000000;fill-opacity:1;fill-rule:evenodd;stroke:#000000;stroke-width:1.00000003pt;stroke-opacity:1"
         transform="matrix(0.8,0,0,0.8,10,0)" />
    </marker>
    <marker
       inkscape:stockid="Arrow1Lend"
       orient="auto"
       refY="0"
       refX="0"
       id="Arrow1Lend-6-3"
       style="overflow:visible"
       inkscape:isstock="true">
      <path
         inkscape:connector-curvature="0"
         id="path1050-1-7"
         d="M 0,0 5,-5 -12.5,0 5,5 Z"
         style="fill:#000000;fill-opacity:1;fill-rule:evenodd;stroke:#000000;stroke-width:1.00000003pt;stroke-opacity:1"
         transform="matrix(-0.8,0,0,-0.8,-10,0)" />
    </marker>
  </defs>
  <sodipodi:namedview
     pagecolor="#ffffff"
     bordercolor="#666666"
     borderopacity="1"
     objecttolerance="10"
     gridtolerance="10"
     guidetolerance="10"
     inkscape:pageopacity="0"
     inkscape:pageshadow="2"
     inkscape:window-width="2560"
     inkscape:window-height="1376"
     id="namedview4"
     showgrid="false"
     inkscape:zoom="0.89399998"
     inkscape:cx="268.78563"
     inkscape:cy="329.79379"
     inkscape:window-x="1920"
     inkscape:window-y="27"
     inkscape:window-maximized="1"
     inkscape:current-layer="svg2"
     fit-margin-top="0"
     fit-margin-left="0"
     fit-margin-right="0"
     fit-margin-bottom="0" />
  <text
     xml:space="preserve"
     style="font-style:normal;font-variant:normal;font-weight:normal;font-stretch:normal;font-size:40px;line-height:1.25;font-family:'modern latin';-inkscape-font-specification:'modern latin';letter-spacing:0px;word-spacing:0px;fill:#000000;fill-opacity:1;stroke:none"
     x="699.64954"
     y="30.390625"
     id="text1843-9"><tspan
       sodipodi:role="line"
       id="tspan1841-3"
       x="699.64954"
       y="30.390625">Histograms</tspan></text>
  <text
     xml:space="preserve"
     style="font-style:normal;font-variant:normal;font-weight:normal;font-stretch:normal;font-size:40px;line-height:1.25;font-family:'modern latin';-inkscape-font-specification:'modern latin';letter-spacing:0px;word-spacing:0px;fill:#000000;fill-opacity:1;stroke:none"
     x="1211.6481"
     y="33.935547"
     id="text1843-9-6"><tspan
       sodipodi:role="line"
       id="tspan1841-3-0"
       x="1211.6481"
       y="33.935547">PMF</tspan></text>
  <g
     id="g5004"
     transform="translate(356.19278,56.549458)">
    <path
       inkscape:connector-curvature="0"
       id="path5623"
       style="fill:#ff0d2c;fill-opacity:0.34265735;fill-rule:nonzero;stroke:none;stroke-width:0.46551943"
       d="m 757.35909,79.199209 v 37.924471 l 1.86224,8.5118 1.86225,8.38548 1.86225,8.02443 1.86224,7.61673 1.86226,7.27827 1.86225,6.53744 1.86225,6.71282 1.86225,6.01791 1.86226,5.32501 1.86224,4.93174 1.86225,4.98113 1.86225,4.84601 1.86226,5.35141 1.86224,5.1225 1.86225,4.35394 1.86225,3.96274 1.86226,3.51285 1.86224,3.06124 1.86225,2.66997 1.86226,2.07302 1.86225,1.59248 1.86224,0.90314 1.86225,0.52224 1.86225,0.25363 1.86226,0.94269 1.86225,1.77707 1.86224,2.44974 1.86225,4.45431 1.86226,3.95607 1.86225,4.5508 1.86224,4.47724 1.86225,4.45009 1.86225,4.0224 1.86226,4.31507 1.86224,3.74241 1.86225,3.40659 1.86226,3.29055 1.86225,3.29249 1.86224,2.55256 1.86225,2.20753 1.86226,2.21241 1.86225,2.47935 1.86225,1.92027 1.86224,1.62397 1.86226,1.63748 1.86225,1.16269 1.86225,0.79635 1.86224,0.54068 1.86225,-0.0115 1.86226,-0.25341 1.86225,-0.59353 1.86224,-1.01184 1.86226,-1.57402 1.86225,-1.38418 1.86225,-0.91353 1.86224,-1.29183 1.86226,-0.81431 1.86225,-1.05549 1.86224,-1.22177 1.86226,-1.21762 1.86224,-1.61159 1.86226,-1.69176 1.86226,-1.64903 1.86225,-1.8684 1.86222,-1.9981 1.86226,-2.6024 1.86225,-2.24346 1.86226,-2.4016 1.86226,-2.40937 1.86224,-2.48551 1.86226,-2.54764 1.86225,-1.80827 1.86222,-1.55591 1.86226,-1.75123 1.86225,-1.70134 1.86226,-1.67276 1.86226,-1.94079 1.86225,-1.65775 1.86226,-2.01201 1.86226,-1.7959 1.8622,-2.00447 1.86226,-2.20328 1.86226,-1.69318 1.86225,-1.7496 1.86226,-1.94287 1.86225,-1.39975 1.86226,-1.96007 1.86222,-1.6767 1.86225,-1.0616 1.86226,-1.16002 1.86225,-1.29899 1.86225,-0.91603 1.86226,-0.13546 1.86226,0.44083 1.86221,0.0625 1.86226,0.2202 1.86226,0.60545 1.86225,0.34959 1.86226,-0.3179 1.86224,0.16201 1.86226,-0.29383 1.86226,-0.64932 1.86221,-0.52439 1.86226,-0.60077 1.86226,-1.01299 1.86225,-1.29004 1.86226,-1.1788 1.86226,-1.19676 1.86224,-1.71619 1.86226,-2.05596 1.86225,-1.55449 1.86222,-1.2401 1.86226,-0.0625 1.86225,-0.26867 1.86226,0.53369 1.86226,-0.13859 1.86221,-0.22874 1.8623,-0.22464 1.86222,-0.37268 1.86224,-0.67166 1.86226,-0.29254 1.86226,-0.95628 1.86225,-0.88709 1.86222,-1.06072 1.86229,-1.1335 1.86222,-1.39273 1.86226,-1.33909 1.86225,-1.69078 1.86226,-1.31415 1.86226,-1.58891 1.86229,-1.65321 1.8622,-1.72207 1.8623,-1.68215 1.8622,-1.798 1.8622,-1.68785 1.8623,-1.86542 1.8623,-1.61533 1.8622,-2.08514 1.8623,-1.62443 1.8622,-2.13856 1.8622,-2.27804 1.8623,-1.94409 1.8622,-2.36445 1.8623,-2.36773 1.8622,-2.17491 1.8623,-2.58013 1.8623,-2.36335 1.8622,-2.56894 1.8622,-2.12633 1.8623,-1.00243 1.8622,-1.26487 1.8623,-1.23195 1.8622,-1.16259 v -22.37397 0 l -1.8622,2.13658 -1.8623,2.40206 -1.8622,1.96053 -1.8623,2.03654 -1.8622,2.60604 -1.8622,2.37001 -1.8623,2.43927 -1.8623,2.96055 -1.8622,2.19663 -1.8623,2.55558 -1.8622,2.67576 -1.8623,2.45334 -1.8622,2.20929 -1.8622,2.26384 -1.8623,2.2142 -1.8622,2.09836 -1.8623,1.92534 -1.8623,1.78962 -1.8622,1.89313 -1.8622,1.65158 -1.8623,1.55219 -1.8622,1.8406 -1.86229,1.32515 -1.86226,1.92384 -1.86226,1.24283 -1.86225,1.48398 -1.86226,1.15736 -1.86222,1.26954 -1.86229,1.08248 -1.86222,0.9315 -1.86225,1.24759 -1.86226,0.65444 -1.86226,0.52956 -1.86224,0.8494 -1.86222,0.51106 -1.8623,0.34993 -1.86221,0.17206 -1.86226,0.22925 -1.86226,0.26188 -1.86225,0.27107 -1.86226,0.33018 -1.86222,1.30893 -1.86225,1.33174 -1.86226,1.38022 -1.86224,1.10266 -1.86226,1.11279 -1.86226,0.73214 -1.86225,0.85084 -1.86226,0.75078 -1.86226,0.33693 -1.86221,0.48659 -1.86226,0.3961 -1.86226,0.11642 -1.86224,-0.0234 -1.86226,-0.014 -1.86225,-0.45595 -1.86226,-0.18228 -1.86226,-0.67985 -1.86221,-0.58045 -1.86226,-0.51983 -1.86226,0.26709 -1.86225,0.79282 -1.86225,3.13186 -1.86226,1.18677 -1.86225,3.41934 -1.86222,3.27514 -1.86226,2.76479 -1.86225,2.48551 -1.86226,2.52427 -1.86225,2.63927 -1.86226,1.98952 -1.86226,2.29423 -1.8622,2.17388 -1.86226,1.99649 -1.86226,1.68878 -1.86225,2.03305 -1.86226,1.13391 -1.86226,1.00217 -1.86225,1.54313 -1.86226,1.4229 -1.86222,1.81941 -1.86225,2.57418 -1.86226,2.08238 -1.86224,2.89708 -1.86226,2.44313 -1.86226,1.89074 -1.86225,1.57488 -1.86226,1.84136 -1.86222,1.35201 -1.86225,1.08088 -1.86226,0.97513 -1.86226,1.07032 -1.86224,0.62168 -1.86226,0.35065 -1.86224,0.60323 -1.86225,-0.0475 -1.86226,0.0444 -1.86224,0.68149 -1.86225,1.85447 -1.86225,1.31362 -1.86226,1.68547 -1.86224,1.19777 -1.86225,0.6579 -1.86226,0.37642 -1.86225,-0.0698 -1.86224,-0.36422 -1.86225,-0.71422 -1.86225,-1.08643 -1.86226,-1.63937 -1.86224,-1.20915 -1.86225,-2.41507 -1.86225,-1.63756 -1.86226,-1.70764 -1.86225,-1.89377 -1.86224,-2.11342 -1.86225,-2.45065 -1.86226,-2.74485 -1.86225,-2.96504 -1.86224,-3.19217 -1.86226,-3.17284 -1.86225,-3.93408 -1.86225,-4.12602 -1.86224,-4.21657 -1.86225,-5.01339 -1.86226,-5.13607 -1.86225,-5.52777 -1.86224,-2.94036 -1.86225,-1.45233 -1.86226,-0.0612 -1.86225,-1.30444 -1.86225,-0.72576 -1.86224,-1.61258 -1.86225,-1.92306 -1.86226,-2.76493 -1.86225,-2.75948 -1.86224,-3.88606 -1.86226,-3.92747 -1.86225,-4.46973 -1.86225,-4.78408 -1.86224,-5.35645 -1.86226,-5.17977 -1.86225,-5.7621 -1.86225,-5.73775 -1.86224,-6.40208 -1.86226,-6.96107 -1.86225,-7.57957 -1.86225,-8.08125 -1.86225,-8.60793 -1.86226,-8.85535 -1.86224,-9.54061 -1.86225,-9.746548 -1.86225,-10.201142 z" />
    <path
       sodipodi:nodetypes="cccccccccccccccccccccccccccccccccccccccccccccccccccccccccccccccccccccccccccccccccccccccccccccccccccccccccccccccccccccccccc"
       inkscape:connector-curvature="0"
       id="path5763"
       style="fill:none;stroke:#ff0000;stroke-width:2.7980001;stroke-linecap:square;stroke-linejoin:round;stroke-miterlimit:10;stroke-dasharray:none;stroke-opacity:1"
       d="m 759.22133,107.65963 1.86225,9.29331 1.86225,8.88548 1.86224,8.57867 1.86226,8.06682 1.86225,7.57269 1.86225,7.39703 1.86225,6.79873 1.86226,6.14304 1.86224,5.66691 3.7245,10.66349 3.7245,10.50507 1.86225,4.56901 1.86225,4.21625 1.86226,3.72015 1.86224,3.47365 1.86225,2.71472 1.86226,2.41899 1.86225,1.75776 1.86224,1.25786 1.86225,0.624 1.86225,0.77904 1.86226,0.50196 1.86225,1.61469 1.86224,2.69506 1.86225,4.99104 1.86226,4.54607 1.86225,4.78209 3.72449,8.63496 1.86225,3.97825 1.86226,3.74395 1.86224,3.4673 1.86225,3.1858 1.86226,3.0177 1.86225,2.87158 1.86224,2.33299 7.44901,8.2368 1.86224,1.41655 1.86226,1.63843 1.86225,1.12456 1.86225,0.75529 1.86224,0.45245 1.86225,0.0293 1.86226,-0.3149 1.86225,-0.62572 1.86224,-1.1048 1.86226,-1.62975 3.7245,-2.73291 1.86224,-0.98664 3.72451,-0.93336 1.86224,-0.9125 1.86226,-0.78415 1.86224,-1.11662 5.58677,-4.16777 1.86222,-1.67504 1.86226,-2.22188 1.86225,-1.90918 1.86226,-2.14616 1.86226,-2.42626 1.86224,-2.6913 1.86226,-2.315 1.86225,-2.19122 1.86222,-1.68767 3.72451,-3.20929 1.86226,-1.33747 1.86226,-1.53736 5.58677,-5.59198 1.8622,-2.08918 1.86226,-2.24875 1.86226,-1.84135 3.72451,-4.42801 1.86225,-1.94263 1.86226,-2.36244 1.86222,-2.47591 1.86225,-2.24046 1.86226,-1.1734 1.86225,-2.21542 1.86225,-0.85442 1.86226,-0.20128 1.86226,0.48033 1.86221,0.32142 3.72452,0.84389 1.86225,0.40277 1.86226,-0.15199 1.86224,0.0927 1.86226,-0.20513 5.58673,-1.49707 1.86226,-0.88188 1.86225,-1.07044 1.86226,-0.95546 1.86226,-1.15478 1.86224,-1.40943 1.86226,-1.71809 1.86225,-1.44311 1.86222,-1.27451 3.72451,-0.46625 1.86226,0.13591 3.72447,-0.38431 1.8623,-0.28729 1.86222,-0.44188 1.86224,-0.76052 1.86226,-0.41107 1.86226,-0.80534 5.58676,-3.17145 3.72448,-2.57936 1.86225,-1.58737 1.86226,-1.27849 1.86226,-1.75637 1.86229,-1.48919 1.8622,-1.78134 1.8623,-1.61717 3.7244,-3.51528 3.7246,-3.59785 1.8622,-2.09175 1.8623,-1.91932 5.5867,-6.64358 3.7245,-4.98175 1.8622,-2.18579 1.8623,-2.77033 5.5867,-7.23696 3.7245,-3.13218 1.8623,-1.81701" />
    <text
       id="text993-1"
       y="361.65125"
       x="873.03607"
       style="font-style:normal;font-variant:normal;font-weight:normal;font-stretch:normal;font-size:40px;line-height:1.25;font-family:'modern latin';-inkscape-font-specification:'modern latin';letter-spacing:0px;word-spacing:0px;fill:#000000;fill-opacity:1;stroke:none"
       xml:space="preserve"><tspan
         style="font-style:italic"
         y="361.65125"
         x="873.03607"
         id="tspan991-2"
         sodipodi:role="line">ξ</tspan></text>
    <path
       sodipodi:nodetypes="ccc"
       inkscape:connector-curvature="0"
       id="path1029-8-5"
       d="M 1041.3674,318.28157 H 758.14563 V 48.46103"
       style="fill:none;stroke:#000000;stroke-width:1.70880246;stroke-linecap:butt;stroke-linejoin:miter;stroke-miterlimit:4;stroke-dasharray:none;stroke-opacity:1;marker-start:url(#Arrow1Lstart-6-0);marker-end:url(#Arrow1Lend-6-3)" />
    <text
       transform="rotate(-90)"
       id="text1843-9-9-2"
       y="737.38647"
       x="-200.69012"
       style="font-style:normal;font-variant:normal;font-weight:normal;font-stretch:normal;font-size:40px;line-height:1.25;font-family:'modern latin';-inkscape-font-specification:'modern latin';letter-spacing:0px;word-spacing:0px;fill:#000000;fill-opacity:1;stroke:none"
       xml:space="preserve"><tspan
         y="737.38647"
         x="-200.69012"
         id="tspan1841-3-2-8"
         sodipodi:role="line">U</tspan></text>
  </g>
  <g
     transform="translate(216.19278,58.925972)"
     id="g1027">
    <path
       style="fill:none;stroke:#000000;stroke-width:3.5;stroke-linecap:butt;stroke-linejoin:miter;stroke-miterlimit:4;stroke-dasharray:none;stroke-opacity:1"
       d="M -121.44072,28.053691 C -100.00149,116.23415 -80.720451,292.76579 -57.123043,292.59507 -33.525635,292.42435 -16.66816,116.79344 4.39821,29.172259 l -0.0175,-1e-6"
       id="path817"
       inkscape:connector-curvature="0"
       sodipodi:nodetypes="czcc" />
    <path
       style="opacity:1;fill:#f8e98a;fill-opacity:1;fill-rule:nonzero;stroke:#000000;stroke-width:2;stroke-linecap:square;stroke-miterlimit:4;stroke-dasharray:none;stroke-dashoffset:0;stroke-opacity:1"
       id="path819"
       sodipodi:type="arc"
       sodipodi:cx="-66.910515"
       sodipodi:cy="272.1113"
       sodipodi:rx="15.170582"
       sodipodi:ry="15.170582"
       sodipodi:start="0.06459481"
       sodipodi:end="0.062002473"
       sodipodi:open="true"
       d="m -51.771572,273.09056 a 15.170582,15.170582 0 0 1 -16.108391,14.16031 15.170582,15.170582 0 0 1 -14.170752,-16.09921 15.170582,15.170582 0 0 1 16.090024,-14.18118 15.170582,15.170582 0 0 1 14.191607,16.08083" />
    <path
       style="fill:none;stroke:#000000;stroke-width:3.5;stroke-linecap:butt;stroke-linejoin:miter;stroke-miterlimit:4;stroke-dasharray:none;stroke-opacity:1"
       d="M -34.7138,29.348875 C -13.27457,117.52933 6.00647,294.06097 29.60387,293.89025 53.20128,293.71953 70.05876,118.08862 91.12513,30.467443 l -0.0175,-1e-6"
       id="path817-6"
       inkscape:connector-curvature="0"
       sodipodi:nodetypes="czcc" />
    <path
       style="fill:none;stroke:#000000;stroke-width:3.5;stroke-linecap:butt;stroke-linejoin:miter;stroke-miterlimit:4;stroke-dasharray:none;stroke-opacity:1"
       d="m 46.35828,26.185086 c 21.43923,88.180454 40.72027,264.712104 64.31767,264.541384 23.59741,-0.17072 40.45489,-175.80164 61.52126,-263.422816 l -0.0175,-1e-6"
       id="path817-6-7"
       inkscape:connector-curvature="0"
       sodipodi:nodetypes="czcc" />
    <path
       style="opacity:1;fill:#f8e98a;fill-opacity:1;fill-rule:nonzero;stroke:#000000;stroke-width:2;stroke-linecap:square;stroke-miterlimit:4;stroke-dasharray:none;stroke-dashoffset:0;stroke-opacity:1"
       id="path819-3"
       sodipodi:type="arc"
       sodipodi:cx="48.829407"
       sodipodi:cy="256.72421"
       sodipodi:rx="15.170582"
       sodipodi:ry="15.170582"
       sodipodi:start="0.06459481"
       sodipodi:end="0.062002473"
       sodipodi:open="true"
       d="M 63.96835,257.70347 A 15.170582,15.170582 0 0 1 47.859959,271.86379 15.170582,15.170582 0 0 1 33.689207,255.76458 15.170582,15.170582 0 0 1 49.779231,241.58339 15.170582,15.170582 0 0 1 63.970838,257.66422" />
    <path
       style="opacity:1;fill:#f8e98a;fill-opacity:1;fill-rule:nonzero;stroke:#000000;stroke-width:2;stroke-linecap:square;stroke-miterlimit:4;stroke-dasharray:none;stroke-dashoffset:0;stroke-opacity:1"
       id="path819-3-3"
       sodipodi:type="arc"
       sodipodi:cx="122.38748"
       sodipodi:cy="278.0798"
       sodipodi:rx="15.170582"
       sodipodi:ry="15.170582"
       sodipodi:start="0.06459481"
       sodipodi:end="0.062002473"
       sodipodi:open="true"
       d="m 137.52642,279.05906 a 15.170582,15.170582 0 0 1 -16.10839,14.16032 15.170582,15.170582 0 0 1 -14.17075,-16.09921 15.170582,15.170582 0 0 1 16.09003,-14.18119 15.170582,15.170582 0 0 1 14.1916,16.08083" />
  </g>
  <text
     id="text993"
     y="425.51102"
     x="211.91443"
     style="font-style:normal;font-variant:normal;font-weight:normal;font-stretch:normal;font-size:40px;line-height:1.25;font-family:'modern latin';-inkscape-font-specification:'modern latin';letter-spacing:0px;word-spacing:0px;fill:#000000;fill-opacity:1;stroke:none"
     xml:space="preserve"><tspan
       style="font-style:italic"
       y="425.51102"
       x="211.91443"
       id="tspan991"
       sodipodi:role="line">ξ</tspan></text>
  <path
     sodipodi:nodetypes="ccc"
     inkscape:connector-curvature="0"
     id="path1029"
     d="M 425.38086,375.54407 H 49.618299 V 61.89099"
     style="fill:none;stroke:#000000;stroke-width:1.70880246;stroke-linecap:butt;stroke-linejoin:miter;stroke-miterlimit:4;stroke-dasharray:none;stroke-opacity:1;marker-start:url(#Arrow1Lstart);marker-end:url(#Arrow1Lend)" />
  <path
     inkscape:connector-curvature="0"
     id="path1031"
     d="m 374.81734,177.89932 53.78441,-75.13998"
     style="fill:none;stroke:#000000;stroke-width:1px;stroke-linecap:butt;stroke-linejoin:miter;stroke-opacity:1" />
  <text
     id="text1843"
     y="34.644093"
     x="145.85458"
     style="font-style:normal;font-variant:normal;font-weight:normal;font-stretch:normal;font-size:40px;line-height:1.25;font-family:'modern latin';-inkscape-font-specification:'modern latin';letter-spacing:0px;word-spacing:0px;fill:#000000;fill-opacity:1;stroke:none"
     xml:space="preserve"><tspan
       y="34.644093"
       x="145.85458"
       id="tspan1841"
       sodipodi:role="line">Windows</tspan></text>
  <path
     sodipodi:nodetypes="cc"
     inkscape:connector-curvature="0"
     id="path1031-7"
     d="M 341.31848,338.19618 380.00221,308.9175"
     style="fill:none;stroke:#000000;stroke-width:1px;stroke-linecap:butt;stroke-linejoin:miter;stroke-opacity:1" />
  <text
     transform="rotate(-90)"
     id="text1843-9-9"
     y="33.90625"
     x="-236.03635"
     style="font-style:normal;font-variant:normal;font-weight:normal;font-stretch:normal;font-size:40px;line-height:1.25;font-family:'modern latin';-inkscape-font-specification:'modern latin';letter-spacing:0px;word-spacing:0px;fill:#000000;fill-opacity:1;stroke:none"
     xml:space="preserve"><tspan
       y="33.90625"
       x="-236.03635"
       id="tspan1841-3-2"
       sodipodi:role="line">U</tspan></text>
  <text
     id="text3765"
     y="70.326492"
     x="405.66724"
     style="font-style:normal;font-variant:normal;font-weight:normal;font-stretch:normal;font-size:21.76180649px;line-height:1.25;font-family:'modern latin';-inkscape-font-specification:'modern latin';letter-spacing:0px;word-spacing:0px;fill:#000000;fill-opacity:1;stroke:none;stroke-width:0.54404515"
     xml:space="preserve"><tspan
       style="stroke-width:0.54404515"
       y="70.326492"
       x="405.66724"
       id="tspan3763"
       sodipodi:role="line">Harmonic </tspan><tspan
       style="stroke-width:0.54404515"
       id="tspan3767"
       y="97.528748"
       x="405.66724"
       sodipodi:role="line">Restraint</tspan></text>
  <text
     id="text3765-9"
     y="289.35718"
     x="387.15707"
     style="font-style:normal;font-variant:normal;font-weight:normal;font-stretch:normal;font-size:21.76180649px;line-height:1.25;font-family:'modern latin';-inkscape-font-specification:'modern latin';letter-spacing:0px;word-spacing:0px;fill:#000000;fill-opacity:1;stroke:none;stroke-width:0.54404515"
     xml:space="preserve"><tspan
       style="stroke-width:0.54404515"
       id="tspan3767-3"
       y="289.35718"
       x="387.15707"
       sodipodi:role="line">Current </tspan><tspan
       id="tspan3817"
       style="stroke-width:0.54404515"
       y="316.55945"
       x="387.15707"
       sodipodi:role="line">System </tspan><tspan
       id="tspan3819"
       style="stroke-width:0.54404515"
       y="343.76169"
       x="387.15707"
       sodipodi:role="line">Position</tspan></text>
  <g
     transform="translate(506.08092,367.51143)"
     id="g5076">
    <g
       id="g5186">
      <path
         inkscape:connector-curvature="0"
         id="path5054"
         d="m -86.90828,-210.71141 h 62.434007 v -24.6085 l 37.279782,55.36913"
         style="fill:none;stroke:#000000;stroke-width:1px;stroke-linecap:butt;stroke-linejoin:miter;stroke-opacity:1"
         sodipodi:nodetypes="cccc" />
      <path
         inkscape:connector-curvature="0"
         id="path5054-9"
         d="m -86.90828,-149.19015 62.434015,2 v 22.6085 l 37.279774,-55.36913"
         style="fill:none;stroke:#000000;stroke-width:1px;stroke-linecap:butt;stroke-linejoin:miter;stroke-opacity:1"
         sodipodi:nodetypes="cccc" />
    </g>
    <path
       sodipodi:nodetypes="cc"
       style="fill:none;stroke:#000000;stroke-width:1px;stroke-linecap:butt;stroke-linejoin:miter;stroke-opacity:1"
       d="m -86.90828,-210.71141 v 61.52126"
       id="path5071"
       inkscape:connector-curvature="0" />
    <g
       transform="translate(0,-1.5343299)"
       id="g5191">
      <path
         inkscape:connector-curvature="0"
         id="path5054-4"
         d="m 437.01007,-209.17708 h 62.43401 v -24.6085 l 37.27978,55.36913"
         style="fill:none;stroke:#000000;stroke-width:1px;stroke-linecap:butt;stroke-linejoin:miter;stroke-opacity:1"
         sodipodi:nodetypes="cccc" />
      <path
         inkscape:connector-curvature="0"
         id="path5054-9-7"
         d="m 437.01007,-147.65582 h 62.43401 v 24.6085 l 37.27978,-55.36913"
         style="fill:none;stroke:#000000;stroke-width:1px;stroke-linecap:butt;stroke-linejoin:miter;stroke-opacity:1"
         sodipodi:nodetypes="cccc" />
      <path
         inkscape:connector-curvature="0"
         id="path5071-8"
         d="m 437.01007,-209.17708 v 61.52126"
         style="fill:none;stroke:#000000;stroke-width:1px;stroke-linecap:butt;stroke-linejoin:miter;stroke-opacity:1"
         sodipodi:nodetypes="cc" />
    </g>
  </g>
  <text
     id="text959"
     y="33.696819"
     x="-0.3125"
     style="font-style:normal;font-weight:normal;font-size:40px;line-height:1.25;font-family:sans-serif;letter-spacing:0px;word-spacing:0px;fill:#000000;fill-opacity:1;stroke:none"
     xml:space="preserve"><tspan
       y="33.696819"
       x="-0.3125"
       id="tspan957"
       sodipodi:role="line">A)</tspan></text>
  <text
     id="text959-3"
     y="33.696819"
     x="528.10052"
     style="font-style:normal;font-weight:normal;font-size:40px;line-height:1.25;font-family:sans-serif;letter-spacing:0px;word-spacing:0px;fill:#000000;fill-opacity:1;stroke:none"
     xml:space="preserve"><tspan
       y="33.696819"
       x="528.10052"
       id="tspan957-6"
       sodipodi:role="line">B)</tspan></text>
  <text
     id="text959-3-7"
     y="33.696819"
     x="1062.173"
     style="font-style:normal;font-weight:normal;font-size:40px;line-height:1.25;font-family:sans-serif;letter-spacing:0px;word-spacing:0px;fill:#000000;fill-opacity:1;stroke:none"
     xml:space="preserve"><tspan
       y="33.696819"
       x="1062.173"
       id="tspan957-6-5"
       sodipodi:role="line">C)</tspan></text>
  <g
     id="g4970"
     transform="translate(297.50479,56.549458)">
    <path
       sodipodi:nodetypes="czc"
       inkscape:connector-curvature="0"
       id="path902"
       d="m 501.21029,297.89218 c 56.16652,-0.82183 61.58418,-177.37409 79.65342,-177.0973 18.06924,0.2768 5.98006,175.98302 51.17449,175.70445"
       style="fill:none;stroke:#6768ff;stroke-width:1.43900001;stroke-linecap:butt;stroke-linejoin:miter;stroke-miterlimit:4;stroke-dasharray:none;stroke-opacity:1" />
    <path
       sodipodi:nodetypes="czc"
       inkscape:connector-curvature="0"
       id="path902-5"
       d="m 405.8034,297.17484 c 75.9402,3.28721 60.39776,-206.345274 78.467,-206.068475 18.06924,0.276791 12.50537,206.764905 57.6998,206.486335"
       style="fill:none;stroke:#6768ff;stroke-width:1.43900001;stroke-linecap:butt;stroke-linejoin:miter;stroke-miterlimit:4;stroke-dasharray:none;stroke-opacity:1" />
    <path
       sodipodi:nodetypes="czc"
       inkscape:connector-curvature="0"
       id="path902-5-6"
       d="m 327.05552,297.63518 c 75.9402,3.28721 67.91176,-194.08824 85.981,-193.81144 18.06924,0.27679 22.58995,194.92572 67.78438,194.64715"
       style="fill:none;stroke:#6768ff;stroke-width:1.43900001;stroke-linecap:butt;stroke-linejoin:miter;stroke-miterlimit:4;stroke-dasharray:none;stroke-opacity:1" />
    <path
       sodipodi:nodetypes="cssc"
       inkscape:connector-curvature="0"
       id="path902-5-6-2"
       d="m 273.41265,290.76674 c 0.57858,-0.39973 1.15046,-0.81358 1.71574,-1.24115 47.79335,-36.15057 48.45628,-170.4598 63.95456,-170.22238 18.06924,0.2768 16.65785,180.16156 61.85228,179.88299"
       style="fill:none;stroke:#6768ff;stroke-width:1.43900001;stroke-linecap:butt;stroke-linejoin:miter;stroke-miterlimit:4;stroke-dasharray:none;stroke-opacity:1" />
    <text
       id="text993-7"
       y="361.65125"
       x="420.72629"
       style="font-style:normal;font-variant:normal;font-weight:normal;font-stretch:normal;font-size:40px;line-height:1.25;font-family:'modern latin';-inkscape-font-specification:'modern latin';letter-spacing:0px;word-spacing:0px;fill:#000000;fill-opacity:1;stroke:none"
       xml:space="preserve"><tspan
         style="font-style:italic"
         y="361.65125"
         x="420.72629"
         id="tspan991-0"
         sodipodi:role="line">ξ</tspan></text>
    <path
       inkscape:connector-curvature="0"
       id="path1039"
       d="m 391.24541,298.33192 c -0.46141,-0.0431 -12.38752,-0.29846 -26.50246,-0.56756 l -25.66354,-0.48928 2.87271,-1.01812 c 8.04636,-2.85172 14.65659,-7.82304 21.3729,-16.0738 1.7417,-2.13962 5.15687,-7.23245 6.93837,-10.34676 0.87982,-1.53803 1.6925,-2.89484 1.80597,-3.01513 0.11347,-0.12029 0.36558,0.32015 0.56023,0.97875 0.73888,2.49987 4.0376,10.28305 5.75046,13.56793 4.1866,8.02897 8.64517,13.30478 13.84411,16.38171 1.32445,0.78385 1.30508,0.79537 -0.97875,0.58226 z"
       style="opacity:1;fill:#ff0d2c;fill-opacity:0.5;fill-rule:nonzero;stroke:none;stroke-width:0.40240493;stroke-linecap:square;stroke-miterlimit:4;stroke-dasharray:none;stroke-dashoffset:0;stroke-opacity:1" />
    <path
       inkscape:connector-curvature="0"
       id="path1041"
       d="m 445.07651,297.22494 c -9.7665,-0.19142 -19.95945,-0.3667 -22.65101,-0.38952 l -4.89373,-0.0415 2.5802,-0.937 c 5.42908,-1.97156 9.77229,-4.8382 14.63798,-9.66148 5.2245,-5.17896 9.03513,-10.68465 13.37769,-19.32844 l 2.47522,-4.92688 0.3386,1.15171 c 0.18624,0.63344 1.15625,3.22805 2.15558,5.7658 5.85747,14.87465 12.14837,24.09954 19.17401,28.1165 l 1.18913,0.6799 -5.3132,-0.0405 c -2.92226,-0.0223 -13.30397,-0.19716 -23.07047,-0.38857 z"
       style="opacity:1;fill:#ff0d2c;fill-opacity:0.5;fill-rule:nonzero;stroke:none;stroke-width:0.40240493;stroke-linecap:square;stroke-miterlimit:4;stroke-dasharray:none;stroke-dashoffset:0;stroke-opacity:1" />
    <path
       inkscape:connector-curvature="0"
       id="path1045"
       d="m 512.12385,296.26131 c 3.59689,-1.67352 8.68727,-5.43847 11.3356,-8.38405 l 1.23547,-1.37414 1.36211,2.0134 c 1.77914,2.62984 5.42844,6.22687 7.60447,7.49557 l 1.72873,1.00791 -12.50865,0.028 -12.50865,0.028 z"
       style="opacity:1;fill:#ff0d2c;fill-opacity:0.5;fill-rule:nonzero;stroke:none;stroke-width:0.40240493;stroke-linecap:square;stroke-miterlimit:4;stroke-dasharray:none;stroke-dashoffset:0;stroke-opacity:1" />
    <path
       sodipodi:nodetypes="ccc"
       inkscape:connector-curvature="0"
       id="path1029-8"
       d="M 649.17441,318.99461 H 273.41185 V 37.770373"
       style="fill:none;stroke:#000000;stroke-width:1.70880246;stroke-linecap:butt;stroke-linejoin:miter;stroke-miterlimit:4;stroke-dasharray:none;stroke-opacity:1;marker-start:url(#Arrow1Lstart-6);marker-end:url(#Arrow1Lend-6)" />
    <text
       transform="rotate(-90)"
       id="text1843-9-9-9"
       y="251.73489"
       x="-236.00502"
       style="font-style:normal;font-variant:normal;font-weight:normal;font-stretch:normal;font-size:22.65619469px;line-height:1.25;font-family:'modern latin';-inkscape-font-specification:'modern latin';letter-spacing:0px;word-spacing:0px;fill:#000000;fill-opacity:1;stroke:none;stroke-width:0.56640482"
       xml:space="preserve"><tspan
         style="stroke-width:0.56640482"
         y="251.73489"
         x="-236.00502"
         id="tspan1841-3-2-2"
         sodipodi:role="line">Incidence</tspan></text>
    <text
       xml:space="preserve"
       style="font-style:normal;font-variant:normal;font-weight:normal;font-stretch:normal;font-size:21.76180649px;line-height:1.25;font-family:'modern latin';-inkscape-font-specification:'modern latin';letter-spacing:0px;word-spacing:0px;fill:#000000;fill-opacity:1;stroke:none;stroke-width:0.54404515"
       x="506.18784"
       y="104.97272"
       id="text3765-9-6"><tspan
         sodipodi:role="line"
         x="506.18784"
         y="104.97272"
         style="stroke-width:0.54404515"
         id="tspan3864">Overlap</tspan><tspan
         id="tspan4779"
         sodipodi:role="line"
         x="506.18784"
         y="132.17497"
         style="stroke-width:0.54404515">Area</tspan></text>
    <path
       sodipodi:nodetypes="cc"
       style="fill:none;stroke:#000000;stroke-width:1px;stroke-linecap:butt;stroke-linejoin:miter;stroke-opacity:1"
       d="M 450.96268,286.77881 531.65177,147.121"
       id="path3857"
       inkscape:connector-curvature="0" />
  </g>
</svg>
